 <svg
            xmlns="http://www.w3.org/2000/svg"
            width="115.387"
            height="31.066"
            viewBox="0 0 115.387 31.066"
            style="fill: #fff"
          >
            <path
              class="a"
              d="M8.764-51.452a1.359,1.359,0,0,0-.093-.419,21.371,21.371,0,0,1-.838-6.563,17.065,17.065,0,0,1,1.3-6.47,12.828,12.828,0,0,1,11.73-7.959c2.42,0,3.724,1.024,3.724,2.793,0,1.257-.605,2.234-2.327,3.537-2.374,1.769-7.913,4.1-7.913,8.564,0,5.213,7.773,7.913,11.637,7.913a1.432,1.432,0,0,0,1.4-1.4,1.432,1.432,0,0,0-1.4-1.4c-3.584,0-8.844-2.886-8.844-5.12,0-2.048,3.584-3.91,6.8-6.33,2-1.489,3.444-3.3,3.444-5.772,0-3.817-3.351-5.586-6.516-5.586A15.679,15.679,0,0,0,6.529-65.928,19.126,19.126,0,0,0,5.04-58.434a24.023,24.023,0,0,0,1.024,7.4,1.4,1.4,0,0,0,1.3.977A1.4,1.4,0,0,0,8.764-51.452ZM39.95-60.762c0,1.815-1.862,4-5.027,5.632A4.073,4.073,0,0,1,33.9-57.969a4.379,4.379,0,0,1,4.189-4.655A1.759,1.759,0,0,1,39.95-60.762Zm1.862,10.706a1.432,1.432,0,0,0,1.4-1.4,1.432,1.432,0,0,0-1.4-1.4,12.91,12.91,0,0,1-4.143-.605c2.746-1.722,5.074-4.236,5.074-7.308a4.609,4.609,0,0,0-4.655-4.655,7.166,7.166,0,0,0-6.982,7.447,7.066,7.066,0,0,0,1.164,3.956,19.372,19.372,0,0,1-6.284,1.164,1.432,1.432,0,0,0-1.4,1.4,1.432,1.432,0,0,0,1.4,1.4A23.337,23.337,0,0,0,34.5-51.871,13.869,13.869,0,0,0,41.811-50.056ZM57.637-72.864c0,3.4-2.095,8.425-5.213,12.614a16.691,16.691,0,0,1-.838-5.167c0-7.587,2.513-11.171,4.189-11.171C56.706-76.587,57.637-75.144,57.637-72.864Zm4.189,21.411a1.432,1.432,0,0,0-1.4-1.4c-2.281,0-4.841-1.629-6.656-4.562,3.817-4.7,6.656-10.706,6.656-15.453,0-2.374-.931-6.516-4.655-6.516-4.841,0-6.982,6.656-6.982,13.964a18.342,18.342,0,0,0,1.583,7.634c-2.839,3.025-6,4.934-8.564,4.934a1.432,1.432,0,0,0-1.4,1.4,1.432,1.432,0,0,0,1.4,1.4c3.584,0,7.075-2.281,10.007-5.213,2.141,3.119,5.26,5.213,8.611,5.213A1.432,1.432,0,0,0,61.826-51.452ZM74.859-72.864a1.371,1.371,0,0,0-1.4,1.4c0,.791.605,2.327,1.4,2.327a1.371,1.371,0,0,0,1.4-1.4C76.256-71.467,75.79-72.864,74.859-72.864ZM80.91-51.452a1.432,1.432,0,0,0-1.4-1.4c-3.817,0-5.12-3.258-5.12-8.378a1.432,1.432,0,0,0-1.4-1.4,1.456,1.456,0,0,0-1.257.791c-2.188,4.375-7.54,8.983-11.311,8.983a1.432,1.432,0,0,0-1.4,1.4,1.432,1.432,0,0,0,1.4,1.4c4.282,0,8.611-3.351,11.543-7.028.7,3.631,2.886,7.028,7.54,7.028A1.432,1.432,0,0,0,80.91-51.452Zm33.932-16.757a1.654,1.654,0,0,0-.465.093,31.025,31.025,0,0,0-8.285,5.679c-.047-.791-.047-1.629-.047-2.513a51.541,51.541,0,0,1,1.35-11.218,1.289,1.289,0,0,0,.047-.419,1.4,1.4,0,0,0-1.4-1.4,1.4,1.4,0,0,0-1.35.977c-1.21,4-1.443,10.1-1.443,12.055a35.884,35.884,0,0,0,.279,5.074,43.616,43.616,0,0,0-2.793,3.4c-1.443,1.908-2,2.234-2.607,2.234-1.443,0-2.793-3.631-2.793-10.706a51.541,51.541,0,0,1,1.35-11.218,1.289,1.289,0,0,0,.047-.419,1.359,1.359,0,0,0-1.35-1.4,1.516,1.516,0,0,0-1.35.884c-1.583,4.236-9.728,24.251-14.522,24.251a1.432,1.432,0,0,0-1.4,1.4,1.432,1.432,0,0,0,1.4,1.4c5.446,0,9.914-9.17,13.033-16.058v1.164c0,5.958.512,13.5,5.586,13.5,2.886,0,4.515-3.072,6.144-5.027,1.024,3.212,3.119,6.423,6.889,6.423,2.793,0,5.027-1.21,7.494-3.677a1.34,1.34,0,0,0,.419-.977,1.432,1.432,0,0,0-1.4-1.4,1.34,1.34,0,0,0-.977.419c-2.188,2.188-3.677,2.839-5.539,2.839-2.188,0-3.91-2.513-4.655-6.1a30.841,30.841,0,0,1,8.937-6.61,1.445,1.445,0,0,0,.838-1.257A1.439,1.439,0,0,0,114.842-68.209Z"
              transform="translate(-3.691 81.122)"
            />
            <circle class="a" cx="3.55" cy="3.55" r="3.55" />
          </svg>